<svg xmlns="http://www.w3.org/2000/svg" viewBox="0 0 34.706 33.726">
  <path
    fill-rule="evenodd"
    clip-rule="evenodd"
    fill="#FF0000"
    d="M34.6457 13.0673H21.4113L20.533 10.274C19.7456 7.94109 18.8674 5.17847 18.2617 3.15255L17.3228 0.297852L17.1714 0.758287C16.6263 2.50794 14.8395 8.30943 13.5675 11.9622L13.2041 13.0673H0L10.7208 20.9561L6.63234 33.7255L17.3531 25.8367L28.0739 33.7255L23.9855 20.9561L34.7062 13.0673H34.6457ZM14.8092 15.1546C15.4149 13.7426 16.4143 10.7344 17.3228 7.849C18.2617 10.7344 19.2611 13.7426 19.8062 15.1546C20.1999 16.1061 20.1999 17.0884 19.8667 17.8865C19.5639 18.5618 19.0491 19.0222 18.3222 19.2678C18.2617 19.2678 18.1708 19.3292 18.1102 19.3292C17.9285 19.3599 17.7165 19.3906 17.4743 19.3906H17.3228C17.2925 19.3906 17.2623 19.3906 17.2623 19.3906C17.232 19.3906 17.1714 19.3906 17.1411 19.3906C16.8988 19.3906 16.7171 19.3906 16.5051 19.3292C16.4446 19.3292 16.3537 19.2985 16.2932 19.2678C15.5663 19.0222 15.0212 18.5311 14.7184 17.8558C14.3549 17.0577 14.3852 16.1061 14.7789 15.1546H14.8092Z"
  />
</svg>
